<svg id="Camada_1" data-name="Camada 1" xmlns="http://www.w3.org/2000/svg" viewBox="0 0 538.16 87.81"><defs><style>.cls-1{fill:#e11d22;}</style></defs><path class="cls-1" d="M103.91,408.39v-1.46c14.54,0,23.18-8.58,41.14-34.28l-25-36.23c-4.32-6.34-6.77-8.83-14.09-8.83v-1.45h53.68v1.45c-6.08,0-7.15,2.39-7.15,5.41,0,2.35,1.26,4.62,2.65,6.85l12,17.6c8-11.43,13.47-19.6,13.47-24.65,0-3.84-3-5.21-8.09-5.21v-1.45h30.75v1.45c-11.06,0-16.79,6-34.94,31.61l26.08,38.22c4.51,6.51,9.06,9.51,14.67,9.51v1.46H157.7v-1.46c4.63,0,6.29-1.7,6.29-4.54,0-1.88-1.42-4.45-3.37-7.2l-14.38-20.81c-10.26,14.9-13.11,19.66-13.11,23.9,0,5.05,4,8.65,11,8.65v1.46Zm388-48.26c.76-24.21,5.52-30.69,11.24-30.69s11.42,5.28,11.2,30.69Zm-31.36,7.14c0,35.25,35.88,53,66.93,37.56l-1-1c-20.34,6.88-34.72-8.29-34.72-36.58q0-1.95,0-3.78h49.68c0-24.68-14-39.81-38.36-39.81C480.12,323.68,460.55,343.42,460.55,367.27Zm-147.83-33v-1.43L351,323.68v13.5c8.5-6.37,17.54-13.44,27.21-13.44,10.28,0,17.08,4.88,19.61,14.09,8.75-6.52,18.08-14.09,28.09-14.09,13.26,0,20.74,8.13,20.72,23.19v51.59c0,7.1,1.48,8.42,6.42,8.42v1.45h-41.7v-1.45c4.44,0,6.08-2.14,6.08-7.43V342.66c0-10.2-10.3-8.87-19-2.34a38,38,0,0,1,.54,6.61v51.59c0,7.1,1.48,8.42,6.42,8.42v1.45H363.65v-1.45c4.45,0,6.09-2.14,6.09-7.43V342.66c0-10.08-10.05-8.91-18.73-2.57V401c0,4.63,2.8,5.95,6.42,5.95v1.45H312.72v-1.45c6.08,0,9-4.44,9-11.21V343.91C321.76,337.5,315.57,334.3,312.72,334.3Zm-69.79,53.2c0-10.42,4.57-20.48,19.63-23.92l.11,24.93c-.46,6.43-5.35,10-10,9.94C247.2,398.38,242.93,395,242.93,387.5Zm-30.26,4.28c0,15.29,14.8,19.08,21.71,19.08,12.43,0,24.66-7,28.64-16.65,1.55,11.39,8.26,16.65,21,16.65,11.18,0,18.42-4.61,23-13.16l-1.15-.82c-6.08,5.26-14,1.31-14-9.38V348.35c0-19.77-25.21-30-48.13-21.93l.24,1.36c12.88.1,18.45,8.77,18.45,24l0,10C225.34,366.34,212.67,376.28,212.67,391.78ZM55.19,360.13c.77-24.21,5.52-30.69,11.25-30.69s11.41,5.28,11.2,30.69Zm-31.35,7.14c0,38.37,42.85,56.59,75.3,33.12l-1-1c-25,14.8-43.09.06-43.09-32.13q0-1.95,0-3.78H104.8c0-24.68-14-39.81-38.36-39.81C43.41,323.68,23.84,343.42,23.84,367.27ZM232.52,356a12.13,12.13,0,0,0,12.34-12.34A12.34,12.34,0,1,0,232.52,356Zm317.13,55.43A12.12,12.12,0,0,0,562,399.14a12.34,12.34,0,1,0-12.34,12.33Z" transform="translate(-23.84 -323.66)"/></svg>