<svg id="logo-exame-reduzida" xmlns="http://www.w3.org/2000/svg" width="21.582" height="19.12" viewBox="0 0 21.582 19.12">
  <rect id="Retângulo_195" data-name="Retângulo 195" width="21.582" height="19.12" fill="none"/>
  <g id="Grupo_57" data-name="Grupo 57" transform="translate(-415.578 -655)">
    <path id="Caminho_40646" data-name="Caminho 40646" d="M1224.7,478.174c.167-5.271,1.2-6.684,2.449-6.684,1.27,0,2.484,1.15,2.439,6.684Zm-6.827,1.554c0,7.674,7.813,11.544,14.572,8.18l-.209-.215c-4.428,1.5-7.559-1.8-7.559-7.964q0-.426.007-.824h10.817c0-5.372-3.053-8.667-8.353-8.667a9.488,9.488,0,0,0-9.276,9.491" transform="translate(-802.299 184.767)" fill="#ea2300"/>
    <path id="Caminho_40647" data-name="Caminho 40647" d="M1339.812,576.715a2.64,2.64,0,0,0,2.685-2.687,2.686,2.686,0,1,0-2.685,2.687" transform="translate(-905.338 97.405)" fill="#ea2300"/>
  </g>
</svg>
